<svg id="Layer_1" data-name="Layer 1" xmlns="http://www.w3.org/2000/svg" viewBox="0 0 500 500"><defs><style>.cls-1{fill:#ffd15c;}.cls-2{fill:#f8b54d;}.cls-3{fill:#334b5e;}.cls-4{fill:#fff;}</style></defs><title>botBody</title><circle class="cls-1" cx="250" cy="249.89" r="245.77"/><path class="cls-2" d="M88.41,435.07H411.59S259.28,571.9,88.41,435.07Z"/><path class="cls-3" d="M309.6,232.77l-.81,1.63c7.22,8.77,14.41,17.56,21.67,26.28,2.36,2.83,5,3.73,8.33,1.08,2.91-2.35,6.23-4.22,9.07-6.65,2.66-2.27,3.73-4.75,2.28-8.81-4.14-11.61-10.66-21.74-17.7-32.09C328.22,224.82,321.1,231.45,309.6,232.77Z"/><path class="cls-3" d="M167.4,214.49c-7.08,10.35-13.45,20.37-17.54,31.8-1.45,4.07-.4,6.58,2.28,8.82a66.1,66.1,0,0,0,10.42,7.26c1.38.75,4.34.56,5.46-.44a106.6,106.6,0,0,0,22.62-29.13C178.92,231.6,171.53,225.55,167.4,214.49Z"/><path class="cls-3" d="M204.74,426.54H228v-5.85l-23.25-3.08Z"/><path class="cls-3" d="M295.2,417.77l-23.32,2.85v6H295.2Z"/><path class="cls-3" d="M219.27,286.73c7-1.54,5.88,3.14,9.16,5.45,1.48-5.57,3.73-14,5.24-19.68l-9.33-2.18C223.05,274.08,220.48,283.22,219.27,286.73Z"/><path class="cls-3" d="M262.92,135.32c1.16,7.31,4.23,28.3,5.45,35.87H231.59c1.87-11.06,3.65-24.94,5.49-35.87Z"/><path class="cls-3" d="M358.66,325c-1.94,5.59-3.94,11.15-5.81,16.76-1.16,3.47-3.72,4.68-6.89,3.77-3.73-1.07-3.35-4.28-2.83-7.33.92-5.41,2.27-10.81,2.46-16.24a8.41,8.41,0,0,0-3.88-6.47,6,6,0,0,0-8.12,2.43c-1,1.81-1.5,4.08-2.89,5.45s-4.08,3.33-5.75,3c-2.72-.57-4.62-3-2.87-6.34,3-5.66,6-11.28,9-16.84A60,60,0,0,1,358.66,323Z"/><path class="cls-3" d="M141.34,323A67.5,67.5,0,0,1,165,304.68c2.18-1,3.65-1,4.85.91,2.86,4.69,5.69,9.41,8.35,14.21,1.84,3.31-.27,5.77-3,6.43-1.66.4-4.34-1.21-5.77-2.68-1.62-1.65-1.92-4.67-3.62-6.16s-5-3.09-6.53-2.39c-2.19,1-4.85,4.07-4.83,6.24,0,5.58,1.35,11.16,2.33,16.71.54,3,1.13,6.3-2.42,7.5s-6.24.13-7.43-4.07c-1.58-5.55-3.71-10.95-5.6-16.41Z"/><path class="cls-3" d="M332.44,214.21c7,10.35,13.56,20.48,17.7,32.09,1.45,4.06.38,6.54-2.28,8.81-2.84,2.43-6.16,4.3-9.07,6.65-3.29,2.65-6,1.75-8.33-1.08-7.26-8.72-23.18-28.21-23.18-28.21S328.22,224.82,332.44,214.21Z"/><path class="cls-3" d="M167.4,214.49c4.13,11.06,11.52,17.11,23.24,18.31A106.6,106.6,0,0,1,168,261.93c-1.12,1-4.08,1.19-5.46.44a66.1,66.1,0,0,1-10.42-7.26c-2.68-2.24-3.73-4.75-2.28-8.82C154,234.86,160.32,224.84,167.4,214.49Z"/><path class="cls-3" d="M204.74,429V415.36L228,420.08V429Z"/><path class="cls-3" d="M295.2,415.61v13.58H271.88V420Z"/><path class="cls-3" d="M276.1,270.32l-9.33,2.18c1.5,5.67,3.76,14.11,5.24,19.68,3.28-2.31,2.14-7,9.15-5.45C280,283.22,277.39,274.08,276.1,270.32Z"/><path class="cls-4" d="M204.17,186.47C190.45,182,180,184,173.31,192.15c-7.15,8.72-8.49,19.39-2.63,28.65,8.54,13.51,20.78,14.79,34.75,8.63.49,4.29.83,8,1.36,11.72.56,3.86,1.09,7.75,2,11.54,2.4,10.17,10.67,20.36,22.48,20.68,11,.3,22,.37,33,.44,14.49.1,25.45-9.59,27.46-24,.94-6.73,2.08-13.44,3.18-20.5,12,5.83,22.95,5.14,31.89-5a24,24,0,0,0,2.35-29.1c-8.1-12.42-19.81-14-33-8.69-5.47-11.72-14.59-16.38-27-16s-25,.41-37.53,0S209.93,175,204.17,186.47Z"/><path class="cls-4" d="M325.64,301.22C342,306.34,354.78,314.76,363,329.7a30.51,30.51,0,0,0,5.66-21.23c-.92-11.06-2.85-21.93-7.67-32.13-.79-1.65-.6-4-.2-5.93,2-9.52,1.69-18.67-2.69-26.33l-28.2,22.82c.51,1.75,1.57,4.78,2.26,7.9a10.57,10.57,0,0,1,0,5C330.16,286.76,328,293.68,325.64,301.22Z"/><path class="cls-4" d="M174.1,301.05c-.45-2.32-.84-4.7-1.39-7.05-2.1-8.84-7.29-17.37-2.51-26.92.29-.59-.88-2.4-1.79-3-3.5-2.38-7.48-4.14-10.71-6.82-5.23-4.34-10-9.24-15-13.9-4.59,8.29-5,17.3-3.13,26.72a12.71,12.71,0,0,1-.56,7.29c-4.63,10.28-6.49,21.15-7.25,32.22a29.45,29.45,0,0,0,5.41,19.71C148.72,314.29,149.14,311.53,174.1,301.05Z"/><path class="cls-4" d="M263.06,435.33c.32-5.31,3.21-7.18,8.4-7,7.83.28,15.69.37,23.51,0,5.49-.29,8.68,1.56,9.57,7Z"/><path class="cls-4" d="M196.87,435.33c.13-4.71,2.22-7.14,7.25-7,8.7.2,17.41.08,26.11.11,5.26,0,6.77,1.51,7.14,6.92Z"/><path class="cls-4" d="M204.17,186.47c5.76-11.45,14.86-16.4,27.47-16s25,.36,37.53,0,21.5,4.32,27,16c13.2-5.3,24.91-3.73,33,8.69a24,24,0,0,1-2.35,29.1c-8.94,10.1-19.84,10.79-31.89,5-1.1,7.06-2.24,13.77-3.18,20.5-2,14.42-13,24.11-27.46,24-11-.07-22-.14-33-.44-11.81-.32-20.08-10.51-22.48-20.68-.9-3.79-1.43-7.68-2-11.54-.53-3.7-.87-7.43-1.36-11.72-14,6.16-26.21,4.88-34.75-8.63-5.86-9.26-4.52-19.93,2.63-28.65C180,184,190.45,182,204.17,186.47Z"/><path class="cls-4" d="M223.49,282.34c1.88.77,4.86,8.56,5.68,12.71a303.41,303.41,0,0,1,5.12,32.76c1.78,20.72,3,41.5,3.93,62.28.28,6.29-.78,12.73-1.9,19-1.71,9.48-4.19,11.51-13.88,11.07-5.1-.23-10.54-.87-15.11-2.92-7-3.16-9.16-10.43-10.34-17.33a103.65,103.65,0,0,1,.85-39.09c3.74-17.6,7.52-35.21,12-52.62,1.81-7,5.47-13.54,8.59-20.13C218.46,288,221.61,282.61,223.49,282.34Z"/><path class="cls-4" d="M325.64,301.22c2.31-7.54,4.52-14.46,6.5-21.45a10.57,10.57,0,0,0,0-5c-.69-3.12-1.75-6.15-2.26-7.9l28.2-22.82c4.38,7.66,4.73,16.81,2.69,26.33-.4,1.9-.59,4.28.2,5.93,4.82,10.2,6.75,21.07,7.67,32.13A30.51,30.51,0,0,1,363,329.7C354.78,314.76,342,306.34,325.64,301.22Z"/><path class="cls-4" d="M174.1,301.05c-25,10.48-25.38,13.24-36.92,28.24a29.45,29.45,0,0,1-5.41-19.71c.76-11.07,2.62-21.94,7.25-32.22a12.71,12.71,0,0,0,.56-7.29c-1.91-9.42-1.46-18.43,3.13-26.72,5,4.66,9.76,9.56,15,13.9,3.23,2.68,7.21,4.44,10.71,6.82.91.61,2.08,2.42,1.79,3-4.78,9.55.41,18.08,2.51,26.92C173.26,296.35,173.65,298.73,174.1,301.05Z"/><path class="cls-4" d="M276.94,282.34c-1.87.77-4.85,8.56-5.67,12.71a305.94,305.94,0,0,0-5.13,32.76c-1.77,20.72-3,41.5-3.92,62.28-.28,6.29.78,12.73,1.9,19,1.71,9.48,4.18,11.51,13.87,11.07,5.11-.23,10.55-.87,15.12-2.92,7-3.16,9.16-10.43,10.33-17.33a103.45,103.45,0,0,0-.84-39.09c-3.74-17.6-7.52-35.21-12-52.62-1.82-7-5.47-13.54-8.6-20.13C282,288,278.83,282.61,276.94,282.34Z"/></svg>